<svg width="24" height="24" viewBox="0 0 20 20" fill="none"><path d="M0 10a10 10 0 1020 0 10 10 0 00-20 0z" fill="#4086FF"/><path d="M13.703 8.349v3.81H6.295v-3.81a3.908 3.908 0 01.255-1.487c.18-.473.451-.904.797-1.268a3.702 3.702 0 011.212-.85 3.615 3.615 0 012.877 0c.456.197.868.486 1.213.85.345.364.616.795.797 1.268.18.473.267.978.255 1.487h.002zm-8.147 5.333v-.763h8.889v.763a.776.776 0 01-.218.538.733.733 0 01-.524.224H6.295a.733.733 0 01-.522-.225.776.776 0 01-.217-.537z" fill="#fff"/></svg>