<svg width="24" height="24" viewBox="0 0 32 32" fill="none"><circle cx="16" cy="16" r="16" fill="#3DBEE4"/><path fill-rule="evenodd" clip-rule="evenodd" d="M19.31 17.865h2.358c.514 0 .93.418.93.931v1.572a.298.298 0 01-.297.298H10.298a.298.298 0 01-.298-.298v-1.572a.93.93 0 01.931-.931h2.36c.628 0 1.15-.481 1.202-1.107.064-.826-.338-1.442-.767-2.098-.448-.686-.925-1.417-.925-2.478C12.8 10.422 14.14 9 16.299 9c2.159 0 3.5 1.42 3.5 3.182 0 1.061-.476 1.792-.925 2.478-.428.656-.83 1.271-.766 2.098.05.626.574 1.107 1.201 1.107zM14 22a1 1 0 100 2h5a1 1 0 100-2h-5z" fill="#fff"/></svg>