<svg width="24" height="24" viewBox="0 0 32 32" fill="none"><circle cx="16" cy="16" r="16" fill="#626AEA"/><path fill-rule="evenodd" clip-rule="evenodd" d="M23.264 10.4l-1.94-1.933A1.607 1.607 0 0020.195 8h-8.387c-.424 0-.83.168-1.132.466L8.736 10.4A2.506 2.506 0 008 12.175v9.318A2.514 2.514 0 0010.514 24h10.972A2.514 2.514 0 0024 21.486v-9.311c0-.666-.265-1.305-.736-1.775zm-10.885-.639h7.27c.232 0 .451.102.6.278l1.579 1.858H9.986l1.828-1.895a.786.786 0 01.565-.24z" fill="#fff"/><circle cx="16" cy="18" r="2" fill="#626AEA"/></svg>