<svg width="24" height="24" viewBox="0 0 32 32" fill="none"><circle cx="16" cy="16" r="16" fill="#76CE59"/><path d="M23.013 13.394a5.44 5.44 0 01-1.493 4.821c-1.469 1.481-3.554 1.932-5.425 1.387a.858.858 0 00-.865.201L12.233 22.8a1.08 1.08 0 01-1.517 0L9.2 21.296a1.065 1.065 0 010-1.505l2.985-2.973c.225-.226.285-.557.19-.865a5.431 5.431 0 011.374-5.45 5.475 5.475 0 014.916-1.516c.486.095.652.71.296 1.054L16 12.991a1.045 1.045 0 000 1.505L17.504 16a1.08 1.08 0 001.517 0l2.938-2.926c.355-.343.971-.166 1.054.32z" fill="#fff"/></svg>