<svg width="24" height="24" viewBox="0 0 32 32" fill="none"><circle cx="16" cy="16" r="16" fill="#3370FF"/><path d="M9.28 12.8v.013l5.993 2.733h.006c.36.168.777.168 1.137 0h.006l5.993-2.733V12.8a.569.569 0 00.39-.52.567.567 0 00-.395-.523l-5.985-2.742h-.01a1.343 1.343 0 00-1.136 0h-.011l-5.983 2.742a.567.567 0 00-.395.522.569.569 0 00.39.521z" fill="#fff"/><path d="M22.408 15.476l-1.17-.538c-1.836.84-4.345 1.984-4.375 1.994a2.75 2.75 0 01-2.032 0c-.028-.009-2.533-1.152-4.367-1.993l-1.179.537a.542.542 0 00-.005 1.043v.011l5.993 2.734h.006c.36.168.777.168 1.138 0h.006l5.992-2.734v-.011a.542.542 0 000-1.043h-.007z" fill="#fff"/><path d="M22.408 19.197l-1.17-.538a826.57 826.57 0 01-4.375 1.994c-.653.26-1.38.26-2.032 0-.028-.01-2.533-1.152-4.368-1.993l-1.178.537a.543.543 0 00-.005 1.044v.01l5.993 2.734h.006c.36.168.777.168 1.138 0h.006l5.992-2.733v-.011a.544.544 0 000-1.044h-.007z" fill="#fff"/></svg>