<svg t="1768298799288" class="icon" viewBox="0 0 1024 1024" version="1.1" xmlns="http://www.w3.org/2000/svg" p-id="20217" width="200" height="200"><path d="M716.8 0c169.664 0 307.2 137.536 307.2 307.2v409.6c0 169.664-137.536 307.2-307.2 307.2H307.2C137.536 1024 0 886.464 0 716.8V307.2C0 137.536 137.536 0 307.2 0h409.6z m26.7904 281.6H267.7504C216.8064 281.6 192 304.2816 192 349.6192v325.248c0 45.3248 23.2704 66.7648 72.9472 66.7648h72.9472l-8.9728 69.2992a22.3616 22.3616 0 0 0 13.3504 19.968 27.5072 27.5072 0 0 0 25.8944-1.1008l144.7936-88.1664h233.4336c50.5216 0 72.9472-21.44 72.9472-66.7776V349.6192c0-45.3504-25.2544-68.0192-75.7504-68.0192z m-267.904 258.4448c13.696-0.2176 25.7536 8.96 29.184 22.2208a29.184 29.184 0 0 1-28.3776 36.1472H353.28a29.696 29.696 0 0 1-29.184-22.2208 29.184 29.184 0 0 1 28.3904-36.1472h123.2z m182.3744-124.0064c13.6832-0.2176 25.7408 8.96 29.184 22.2208a29.184 29.184 0 0 1-28.3904 36.1344H353.28a29.696 29.696 0 0 1-29.184-22.208 29.184 29.184 0 0 1 28.3904-36.1472H658.048z" fill="#1677FF" p-id="20218"></path></svg>