<svg t="1649914750410" class="icon" viewBox="0 0 1024 1024" version="1.1" xmlns="http://www.w3.org/2000/svg"
  p-id="22699" width="200" height="200">
  <path d="M514.5088 513.0752m-456.0896 0a456.0896 456.0896 0 1 0 912.1792 0 456.0896 456.0896 0 1 0-912.1792 0Z"
    fill="#8C7BFD" p-id="22700"></path>
  <path
    d="M514.5088 666.8288c-28.2624 0-51.2-22.9376-51.2-51.2v-48.7936c0-44.9536 30.5664-84.992 74.3424-97.4336 38.5536-10.9568 63.6928-46.6432 61.2352-86.8352-2.56-41.6256-37.2224-76.288-78.8992-78.8992-23.7568-1.4336-46.1824 6.6048-63.3856 22.7328-17.2032 16.1792-26.6752 38.0416-26.6752 61.6448 0 28.2624-22.9376 51.2-51.2 51.2s-51.2-22.9376-51.2-51.2c0-51.4048 21.504-101.0688 58.9312-136.2432 37.9904-35.6864 87.6032-53.5552 139.8272-50.3296 93.7984 5.8368 168.9088 80.9472 174.7456 174.7456 5.4272 87.2448-51.5072 167.8336-135.3728 191.6416v47.7696c0.0512 28.2624-22.8864 51.2-51.1488 51.2z"
    fill="#FFE37B" p-id="22701"></path>
  <path d="M514.5088 779.0592m-63.7952 0a63.7952 63.7952 0 1 0 127.5904 0 63.7952 63.7952 0 1 0-127.5904 0Z"
    fill="#FFE37B" p-id="22702"></path>
</svg>