<svg t="1732257910580" class="icon" viewBox="0 0 1024 1024" version="1.1" xmlns="http://www.w3.org/2000/svg"
  p-id="19036" width="64" height="64">
  <path
    d="M716.8 0c169.664 0 307.2 137.536 307.2 307.2v409.6c0 169.664-137.536 307.2-307.2 307.2H307.2C137.536 1024 0 886.464 0 716.8V307.2C0 137.536 137.536 0 307.2 0h409.6z m-10.432 192h-395.136c-39.2704 0-71.232 31.7568-71.232 70.7968v498.3936c0 39.04 31.9488 70.8096 71.232 70.8096h219.6224c136.064 0 246.7456-110.0288 246.7456-245.2608V262.784c0-39.04-31.9488-70.7968-71.232-70.7968zM499.0976 550.4c12.4288 0 22.5024 11.4688 22.5024 25.6s-10.0736 25.6-22.5024 25.6h-108.5952l-1.7664-0.0768c-11.5968-1.024-20.736-12.0576-20.736-25.5232 0-14.144 10.0736-25.6 22.5024-25.6z m100.7744-153.6c13.3248 0 24.128 11.4688 24.128 25.6s-10.8032 25.6-24.128 25.6h-207.744l-1.8816-0.0768c-12.4544-1.024-22.2464-12.0576-22.2464-25.5232 0-14.1312 10.8032-25.6 24.128-25.6z"
    fill="#1677FF" p-id="19037"></path>
</svg>