<svg t="1684508963178" class="icon" viewBox="0 0 1060 1024" version="1.1" xmlns="http://www.w3.org/2000/svg" p-id="832" width="200" height="200"><path d="M885.30763958 842.74451657c-87.11141437 95.81986594-209.06599124 148.08460875-348.44331751 148.08460874-26.13588094 0-52.26708281 0-78.40296373-8.70845062l34.84433249-130.66887657h52.26708188c95.82454406 0 174.22165875-34.84433156 235.20187218-95.81986499l104.53299469 87.11258342z m43.55278312-52.26825186l-113.24261624-87.1114144c43.55278313-52.26708281 60.97553344-121.95340687 60.97553343-200.35753969 0-174.22165875-130.6641975-322.3086075-296.17740468-339.73018781V32.60824625C824.32742708 58.74412719 1015.97183708 259.09698781 1015.97183708 511.72161031c0 104.53182562-34.84433156 200.35169156-87.11141437 278.7546544zM397.48582489 973.40871406C266.81694833 929.85359187 162.28395364 842.74451657 110.01804083 729.49605219l121.95457595-52.26474282c43.55863125 78.39945375 104.53299562 130.66887657 191.64440999 156.79773843l-26.13120188 139.37966626zM83.88683895 668.52051875c-17.42275031-52.26708281-26.13588094-104.53299562-26.13588093-156.79890844 0-261.33307312 209.06599124-470.40023437 461.69061282-479.11336406v139.37732719C336.50561239 180.69870313 197.1282852 328.78565187 197.1282852 511.72161031c0 34.84550156 8.71312969 78.39594469 17.42275032 113.24144626l-130.66419656 43.55746218z m0 0" fill="#706EE7" p-id="833"></path><path d="M83.88683895 668.52051875c-17.42275031-52.26708281-26.13588094-104.53299562-26.13588093-156.79890844 0-261.33307312 209.06599124-470.40023437 470.39906437-479.11336406v139.37732719c-182.93011031 0-331.02173719 156.80007844-331.02173719 339.73603687 0 34.84550156 8.71312969 78.39594469 17.42275032 113.24144626l-130.66419656 43.55746218z m374.57451937 313.59898594l26.13588095-130.66887564h52.2670828c95.81869593 0 191.64324-43.55044313 252.61877345-104.53299561l95.82454406 95.82688313c-87.11141437 95.81986594-209.06599124 148.08460875-348.44331751 148.08460874-26.13588094 0-52.26708281 0-78.40296373-8.70962062z m2e-8 0" fill="#29C287" p-id="834"></path><path d="M275.53124802 598.83185469c-8.71429969-26.13588094-17.42275031-60.9802125-17.42275032-87.11024438 0-148.09162688 113.24261625-261.33307312 261.33307312-270.04737281v139.37849625c-69.68866406 0-121.95574594 60.9790425-121.95574593 130.66887656 0 17.42158125 8.70962062 26.13003188 8.70962063 43.55161314L275.53124802 598.83185469z m26.13003281 52.26591281l130.66887564-52.26708188c26.13120187 34.84433156 60.97553344 52.26708281 104.53416562 52.26708188 78.39711469 0 139.37732718-60.9802125 139.37732718-139.37615719 0-60.9802125-34.84433156-113.24729531-87.11141438-130.66887656V241.6742375c130.6641975 26.13588094 226.48874156 130.66887657 226.48874155 270.04737281 0 148.08577875-121.95574594 270.04035469-270.04620373 270.04035469-113.24261625 0-200.35286063-52.26591281-243.91149188-130.6641975z m0 0" fill="#29C287" p-id="835"></path><path d="M275.53124802 598.83185469c-8.71429969-26.13588094-17.42275031-60.9802125-17.42275032-87.11024438 0-148.09162688 113.24261625-270.0473728 261.33307312-270.04737281v139.37849625c-60.9802125 0-121.95574594 60.9790425-121.95574593 130.66887656 0 17.42158125 8.70962062 26.13003188 8.70962063 43.55161314L275.53124802 598.83185469z m0 0" fill="#29C287" p-id="836"></path></svg>