<svg t="1684562873167" class="icon" viewBox="0 0 1024 1024" version="1.1" xmlns="http://www.w3.org/2000/svg" p-id="1830" width="200" height="200"><path d="M1024 512c0 282.7776-229.2224 512-512 512S0 794.7776 0 512 229.2224 0 512 0s512 229.2224 512 512z" fill="#FF6D00" p-id="1831"></path><path d="M640 294.4v-12.8a25.6 25.6 0 1 0-51.2 0v12.8H435.2v-12.8a25.6 25.6 0 1 0-51.2 0v12.8h-89.5872a38.4 38.4 0 0 0-38.4 38.4v66.56h512V332.8a38.4 38.4 0 0 0-38.4-38.4H640zM256 435.2v303.616A41.8944 41.8944 0 0 0 297.728 780.8h428.5312a41.8816 41.8816 0 0 0 41.7152-41.984V435.2H256z m134.4 102.4h243.2a19.2 19.2 0 0 1 0 38.4h-243.2a19.2 19.2 0 0 1 0-38.4z m0 89.6h243.2a19.2 19.2 0 0 1 0 38.4h-243.2a19.2 19.2 0 0 1 0-38.4z" fill="#FFFFFF" p-id="1832"></path></svg>