<svg t="1732329386942" class="icon" viewBox="0 0 1024 1024" version="1.1" xmlns="http://www.w3.org/2000/svg"
  p-id="12848" width="64" height="64">
  <path
    d="M0 0m180.705882 0l662.588236 0q180.705882 0 180.705882 180.705882l0 662.588236q0 180.705882-180.705882 180.705882l-662.588236 0q-180.705882 0-180.705882-180.705882l0-662.588236q0-180.705882 180.705882-180.705882Z"
    fill="#FA6400" p-id="12849"></path>
  <path
    d="M518.806588 180.705882a181.790118 181.790118 0 0 0-181.76 181.729883v1.596235H700.536471v-1.596235A181.669647 181.669647 0 0 0 518.806588 180.705882z m312.229647 359.845647H745.110588v-90.864941l85.202824-85.172706a6.324706 6.324706 0 0 0 0-8.944941l-33.520941-33.490823a6.324706 6.324706 0 0 0-8.914824 0l-76.980706 76.950588h-171.279059V813.176471a225.099294 225.099294 0 0 0 157.424942-83.84753l78.817882 78.787765a6.324706 6.324706 0 0 0 8.914823 0l33.520942-33.490824a6.324706 6.324706 0 0 0 0-8.944941l-88.124236-88.18447a6.324706 6.324706 0 0 0-1.65647-1.204706 220.611765 220.611765 0 0 0 16.263529-63.337412h0.240941v-15.510588h85.925647a6.324706 6.324706 0 0 0 6.324706-6.324706v-44.242824a6.234353 6.234353 0 0 0-6.234353-6.324706z m-499.772235-141.583058L254.283294 321.957647a6.324706 6.324706 0 0 0-8.944941 0l-33.490824 33.520941a6.324706 6.324706 0 0 0 0 8.914824l81.468236 81.468235v100.743529H211.124706a6.324706 6.324706 0 0 0-6.294588 6.324706v44.272942c0 3.463529 2.831059 6.324706 6.324706 6.324705h82.221176v9.306353h0.210824c2.379294 22.588235 8.131765 44.272941 16.745411 64.331294-0.060235 0.060235-0.150588 0.060235-0.210823 0.150589l-88.154353 88.244706a6.324706 6.324706 0 0 0 0 8.944941l33.520941 33.490823a6.324706 6.324706 0 0 0 8.944941 0l77.763765-77.733647a224.828235 224.828235 0 0 0 156.581647 82.82353V398.938353h-167.484235z"
    fill="#FFFFFF" p-id="12850"></path>
</svg>