<svg t="1684563280224" class="icon" viewBox="0 0 1024 1024" version="1.1" xmlns="http://www.w3.org/2000/svg" p-id="1622" width="200" height="200"><path d="M844.65588148 968.32474075v0.48545184h-598.3194074c-113.95982222 0-206.31703703-92.35721482-206.31703705-206.31703704v-639.5828148c0-34.22435555 27.67075555-61.89511111 61.89511112-61.89511112h577.6877037c34.22435555 0 61.89511111 27.67075555 61.89511112 61.89511112v206.31703703h185.68533333c34.22435555 0 61.89511111 27.67075555 61.89511111 61.89511111v422.94992593c0 82.04136297-63.83691852 148.91235555-144.42192593 154.25232593z" fill="#358CF8" p-id="1623"></path><path d="M741.49736297 329.22737778h185.68533333c34.22435555 0 61.89511111 27.67075555 61.89511111 61.89511111v453.89748148c0 68.32734815-55.46287408 123.79022222-123.79022223 123.79022222s-123.79022222-55.46287408-123.79022221-123.79022222v-515.79259259z" fill="#6FAFFF" p-id="1624"></path><path d="M741.49736297 453.0176h185.68533333c34.22435555 0 61.89511111 27.67075555 61.89511111 61.89511111v330.10725926c0 68.32734815-55.46287408 123.79022222-123.79022223 123.79022222s-123.79022222-55.46287408-123.79022221-123.79022222v-392.00237037z" fill="#6FF3FF" p-id="1625"></path><path d="M741.49736297 556.17611852h185.68533333c34.22435555 0 61.89511111 27.67075555 61.89511111 61.89511111v226.94874074c0 68.32734815-55.46287408 123.79022222-123.79022223 123.79022222s-123.79022222-55.46287408-123.79022221-123.79022222v-288.84385185z" fill="#6FF3FF" p-id="1626"></path><path d="M741.49736297 638.70293333h185.68533333c34.22435555 0 61.89511111 27.67075555 61.89511111 61.89511112v144.42192592c0 68.32734815-55.46287408 123.79022222-123.79022223 123.79022222s-123.79022222-55.46287408-123.79022221-123.79022222v-206.31703704z" fill="#6FF3FF" p-id="1627"></path><path d="M194.75721482 318.91152592h206.31703703c17.11217778 0 30.94755555 13.83537778 30.94755556 30.94755556s-13.83537778 30.94755555-30.94755556 30.94755555h-206.31703703c-17.11217778 0-30.94755555-13.83537778-30.94755557-30.94755555s13.83537778-30.94755555 30.94755557-30.94755556z" fill="#FFFFFF" p-id="1628"></path><path d="M194.75721482 504.59685925h288.84385185c17.11217778 0 30.94755555 13.83537778 30.94755555 30.94755557s-13.83537778 30.94755555-30.94755555 30.94755555h-288.84385185c-17.11217778 0-30.94755555-13.83537778-30.94755557-30.94755555s13.83537778-30.94755555 30.94755557-30.94755557zM194.75721482 669.65048889h103.15851851c17.11217778 0 30.94755555 13.83537778 30.94755556 30.94755556s-13.83537778 30.94755555-30.94755556 30.94755555h-103.15851851c-17.11217778 0-30.94755555-13.83537778-30.94755557-30.94755555s13.83537778-30.94755555 30.94755557-30.94755556z" fill="#FFFFFF" p-id="1629"></path></svg>