<svg t="1649841913645" class="icon" viewBox="0 0 1280 1024" version="1.1" xmlns="http://www.w3.org/2000/svg"
  p-id="31172" width="200" height="200">
  <path
    d="M1210.197333 319.146667v518.656A187.050667 187.050667 0 0 1 1024 1024H186.197333A187.050667 187.050667 0 0 1 0 837.802667V319.232h1210.197333z"
    fill="#6176FF" p-id="31173"></path>
  <path
    d="M279.978667 555.178667c38.4 0 69.888 31.573333 69.888 69.802666 0 38.4-31.573333 69.888-69.802667 69.888a70.144 70.144 0 0 1-69.888-69.888c0-38.229333 31.573333-69.802667 69.802667-69.802666z m325.12 0c38.314667 0 69.802667 31.573333 69.802666 69.802666 0 38.4-31.573333 69.888-69.802666 69.888a70.144 70.144 0 0 1-69.802667-69.888c0-38.229333 31.573333-69.802667 69.802667-69.802666z m324.949333 0c38.4 0 69.888 31.573333 69.888 69.802666 0 38.4-31.573333 69.888-69.888 69.888a70.144 70.144 0 0 1-69.802667-69.888c0-38.229333 31.573333-69.802667 69.802667-69.802666z"
    fill="#FFFFFF" p-id="31174"></path>
  <path
    d="M1210.197333 186.197333A187.050667 187.050667 0 0 0 1024 0H186.197333A187.050667 187.050667 0 0 0 0 186.197333v53.162667h1210.197333v-53.162667z"
    fill="#6176FF" p-id="31175"></path>
</svg>