<svg t="1684562768054" class="icon" viewBox="0 0 1024 1024" version="1.1" xmlns="http://www.w3.org/2000/svg" p-id="1057" width="200" height="200"><path d="M1024 512c0 282.7776-229.2224 512-512 512S0 794.7776 0 512 229.2224 0 512 0s512 229.2224 512 512z" fill="#00C853" p-id="1058"></path><path d="M543.6928 291.584c-0.1664-0.1152 53.3888 56.5888 109.312 115.7888l7.6416 8.0896 117.2096 124.0704a53.76 53.76 0 0 1 2.0864 73.8176l-2.0864 2.2144h0.0128L589.9264 803.456a53.8624 53.8624 0 0 1-76.1088 0L272.3328 555.008A38.2848 38.2848 0 0 1 256 523.648l0.192-201.344a40.7168 40.7168 0 0 1 39.7824-40.448l215.7184 0.128a39.9488 39.9488 0 0 1 32 9.6z m108.4672 259.456a25.6 25.6 0 0 0-36.2112 0l-90.496 90.5088a25.6 25.6 0 0 0 36.1984 36.2112l90.496-90.5088a25.6 25.6 0 0 0 0-36.2112zM384 358.4a38.4 38.4 0 1 0 0 76.8 38.4 38.4 0 0 0 0-76.8z" fill="#FFFFFF" p-id="1059"></path></svg>