<svg t="1646809411481" class="icon" viewBox="0 0 1024 1024" version="1.1" xmlns="http://www.w3.org/2000/svg"
  p-id="11406" width="200" height="200">
  <path
    d="M276.48 20.801829C363.768686 6.933943 442.280229 0 512 0c69.749029 0 148.289829 6.933943 235.637029 20.816457a307.2 307.2 0 0 1 255.136914 254.946743C1016.919771 364.353829 1024 443.099429 1024 512c0 68.988343-7.094857 147.850971-21.269943 236.573257A307.2 307.2 0 0 1 747.373714 1003.52C661.065143 1017.168457 582.582857 1024 512 1024c-71.007086 0-149.986743-6.919314-236.938971-20.743314A307.2 307.2 0 0 1 19.909486 748.075886C6.641371 664.517486 0 587.966171 0 518.407314c0-71.840914 7.080229-152.576 21.240686-242.161371A307.2 307.2 0 0 1 276.48 20.801829z"
    fill="#B37EFF" p-id="11407"></path>
  <path
    d="M672.914286 263.314286c48.479086 0 87.771429 41.545143 87.771428 92.789028V716.8a87.771429 87.771429 0 0 1-87.771428 87.771429H409.6a87.771429 87.771429 0 0 1-87.771429-87.771429V356.103314C321.828571 304.859429 361.120914 263.314286 409.6 263.314286h263.314286z m-29.257143 190.171428H438.857143a14.628571 14.628571 0 0 0-1.711543 29.154743L438.857143 482.742857h204.8a14.628571 14.628571 0 0 0 0-29.257143z m0-87.771428H438.857143a14.628571 14.628571 0 0 0-1.711543 29.154743L438.857143 394.971429h204.8a14.628571 14.628571 0 0 0 0-29.257143z"
    fill="#A772F2" p-id="11408"></path>
  <path
    d="M832.248686 432.713143l34.055314 34.055314a40.96 40.96 0 0 1 0 57.929143L612.7616 778.24 520.777143 686.255543 774.319543 432.713143a40.96 40.96 0 0 1 57.929143 0zM478.8224 845.736229l133.9392-67.496229-91.984457-91.984457-69.295543 131.657143a20.48 20.48 0 0 0 27.3408 27.823543z"
    fill="#A772F2" p-id="11409"></path>
  <path
    d="M802.991543 403.456l34.055314 34.055314a40.96 40.96 0 0 1 0 57.929143L583.504457 748.982857 491.52 656.9984 745.0624 403.456a40.96 40.96 0 0 1 57.929143 0z"
    fill="#FFFFFF" p-id="11410"></path>
  <path
    d="M449.565257 816.479086l133.9392-67.496229-91.984457-91.984457-69.295543 131.657143a20.48 20.48 0 0 0 27.3408 27.823543z"
    fill="#D3B8F8" p-id="11411"></path>
  <path
    d="M643.657143 234.057143c48.479086 0 87.771429 41.545143 87.771428 92.789028v44.500115L462.935771 629.028571 392.192 775.314286H380.342857a87.771429 87.771429 0 0 1-87.771428-87.771429V326.846171C292.571429 275.602286 331.863771 234.057143 380.342857 234.057143h263.314286z m87.771428 412.715886V687.542857a87.771429 87.771429 0 0 1-87.771428 87.771429h-48.420572l17.525029-8.221257L731.428571 646.773029zM614.4 424.228571H409.6a14.628571 14.628571 0 0 0-1.711543 29.154743L409.6 453.485714h204.8a14.628571 14.628571 0 0 0 0-29.257143z m0-87.771428H409.6a14.628571 14.628571 0 0 0-1.711543 29.154743L409.6 365.714286h204.8a14.628571 14.628571 0 0 0 0-29.257143z"
    fill="#FFFFFF" p-id="11412"></path>
</svg>