<svg t="1642498298642" class="icon" viewBox="0 0 1024 1024" version="1.1" xmlns="http://www.w3.org/2000/svg" p-id="8431"
  width="200" height="200">
  <path
    d="M788.14 927h-550c-77.32 0-140-62.68-140-140V237c0-77.32 62.68-140 140-140h550c77.32 0 140 62.68 140 140v550c0 77.32-62.68 140-140 140z"
    fill="#FF7878" p-id="8432"></path>
  <path
    d="M671.15 510.18h-135.9c-13.25 0-24 10.75-24 24s10.75 24 24 24h111.9v91.1c-1.21 0.66-2.37 1.42-3.49 2.31-29.1 23.19-64.2 35.44-101.5 35.44-89.89 0-163.03-73.13-163.03-163.03 0-89.89 73.13-163.03 163.03-163.03 37.61 0 72.94 12.44 102.17 35.98 10.32 8.31 25.43 6.69 33.75-3.64 8.31-10.32 6.68-25.43-3.64-33.75-37.31-30.05-84.29-46.6-132.28-46.6-116.36 0-211.03 94.67-211.03 211.03s94.67 211.03 211.03 211.03c36.98 0 73.4-9.85 105.23-28.12 1.64 11.66 11.65 20.63 23.76 20.63 13.25 0 24-10.75 24-24V534.18c0-13.26-10.75-24-24-24z"
    fill="#EF5252" p-id="8433"></path>
  <path
    d="M671.15 498.18h-135.9c-13.25 0-24 10.75-24 24s10.75 24 24 24h111.9v91.1c-1.21 0.66-2.37 1.42-3.49 2.31-29.1 23.19-64.2 35.44-101.5 35.44-89.89 0-163.03-73.13-163.03-163.03 0-89.89 73.13-163.03 163.03-163.03 37.61 0 72.94 12.44 102.17 35.98 10.32 8.31 25.43 6.69 33.75-3.64 8.31-10.32 6.68-25.43-3.64-33.75-37.31-30.05-84.29-46.6-132.28-46.6-116.36 0-211.03 94.67-211.03 211.03s94.67 211.03 211.03 211.03c36.98 0 73.4-9.85 105.23-28.12 1.64 11.66 11.65 20.63 23.76 20.63 13.25 0 24-10.75 24-24V522.18c0-13.26-10.75-24-24-24z"
    fill="#FFFFFF" p-id="8434"></path>
</svg>