<svg t="1648100539766" class="icon" viewBox="0 0 1024 1024" version="1.1" xmlns="http://www.w3.org/2000/svg" p-id="4761"
  width="200" height="200">
  <path
    d="M333.567014 128.083254V55.997999S341.661875 0 422.149392 0h168.916196a62.555861 62.555861 0 0 1 56.356632 55.997999c7.018962 52.770301 8.043628 80.026417 8.043628 80.026417a217.843999 217.843999 0 0 1 80.38505 48.005604l80.385051-32.020814s41.447741-28.434482 80.38505 32.020814S976.801116 327.893131 976.801116 327.893131s27.819683 44.470506 0 72.034022-72.341422 63.990394-72.341422 63.990393v79.975184H703.471452s32.943013-161.026267-120.551959-231.98439S272.087052 374.771602 277.210382 480.004803s43.75324 237.26142 217.229199 240.028018v296.026017H406.062136a72.034022 72.034022 0 0 1-64.297794-72.034022c-6.04553-68.857557-8.197328-55.997999-8.197328-55.997999s-74.749387-28.895582-88.274979-47.80067l-64.297794 24.028418s-62.299695 26.128984-88.223745-16.240956-24.130885-40.013209-24.130885-40.013209L4.188117 688.012008A76.849952 76.849952 0 0 1 36.413864 600.044429c50.669735-30.073948 48.210537-32.020814 48.210537-32.020814S73.660475 487.894732 84.573168 455.976385L12.231746 400.029619a74.237054 74.237054 0 0 1 0-80.026417C31.649167 287.111422 108.65282 159.950368 108.65282 159.950368s21.056887-23.977185 80.38505 0 48.210537 24.028418 48.210537 24.028418A582.727573 582.727573 0 0 1 333.567014 128.083254z"
    fill="#1A8CFF" p-id="4762"></path>
  <path
    d="M490.443383 368.008806a140.020613 140.020613 0 1 1-140.635413 140.020613 140.020613 140.020613 0 0 1 140.635413-140.020613z"
    fill="#1A8CFF" p-id="4763"></path>
  <path
    d="M654.799815 608.036824h282.141792a88.018812 88.018812 0 0 1 0 175.986391H654.799815a88.018812 88.018812 0 0 1 0-175.986391zM654.799815 848.013609h282.141792a88.018812 88.018812 0 0 1 0 175.986391H654.799815a88.018812 88.018812 0 0 1 0-175.986391z"
    fill="#1A8CFF" opacity=".35" p-id="4764"></path>
</svg>