<svg t="1696822386369" class="icon" viewBox="0 0 1126 1024" version="1.1" xmlns="http://www.w3.org/2000/svg" p-id="2748"
  width="48" height="48">
  <path
    d="M742.4 0h-358.4C199.68 0 51.2 148.48 51.2 332.8v358.4C51.2 875.52 199.68 1024 384 1024h358.4C926.72 1024 1075.2 875.52 1075.2 691.2v-358.4C1075.2 148.48 926.72 0 742.4 0z m63.146667 754.346667c-133.12 133.12-351.573333 133.12-484.693334 0-133.12-133.12-133.12-351.573333 0-484.693334 133.12-133.12 351.573333-133.12 484.693334 0 134.826667 133.12 134.826667 351.573333 0 484.693334z"
    fill="#FD3C13" p-id="2749"></path>
  <path
    d="M356.693333 305.493333c-114.346667 114.346667-114.346667 298.666667 0 411.306667 114.346667 114.346667 298.666667 114.346667 411.306667 0 114.346667-114.346667 114.346667-298.666667 0-411.306667-112.64-112.64-296.96-112.64-411.306667 0zM699.733333 558.08h-153.6c-8.533333 0-15.36-3.413333-22.186666-8.533333-8.533333-6.826667-13.653333-17.066667-13.653334-27.306667v-150.186667c0-18.773333 8.533333-34.133333 27.306667-34.133333s23.893333 15.36 23.893333 34.133333v134.826667H699.733333c18.773333 0 34.133333 5.12 34.133334 23.893333 0 18.773333-15.36 27.306667-34.133334 27.306667z"
    fill="#FD3C13" p-id="2750"></path>
</svg>