<svg t="1651582818357" class="icon" viewBox="0 0 1024 1024" version="1.1" xmlns="http://www.w3.org/2000/svg" p-id="36344" width="200" height="200"><path d="M816.3 95.7H210.2C147 95.7 95.7 147 95.7 210.2v606.1c0 63.2 51.2 114.5 114.5 114.5h606.1c63.2 0 114.5-51.2 114.5-114.5V210.2c-0.1-63.2-51.3-114.5-114.5-114.5z m-303 786.8c-204 0-369.3-165.3-369.3-369.3S309.3 144 513.2 144s369.3 165.3 369.3 369.2-165.3 369.3-369.2 369.3z" fill="#282727" p-id="36345"></path><path d="M513.2 513.2m-345.5 0a345.5 345.5 0 1 0 691 0 345.5 345.5 0 1 0-691 0Z" fill="#282727" p-id="36346"></path><path d="M509 272.5h6.4c4.4 0 7.9 3.5 7.9 7.9V517H501V280.4c0.1-4.4 3.6-7.9 8-7.9z" fill="#E02727" p-id="36347"></path><path d="M654.5 510v6.4c0 4.4-3.5 7.9-7.9 7.9h-145c-0.3 0-0.5-0.2-0.5-0.5v-21.2c0-0.3 0.2-0.5 0.5-0.5h145c4.4 0 7.9 3.5 7.9 7.9z" fill="#E02727" p-id="36348"></path><path d="M512.2 513.2m-17.1 0a17.1 17.1 0 1 0 34.2 0 17.1 17.1 0 1 0-34.2 0Z" fill="#E02727" p-id="36349"></path></svg>