<svg t="1657616576693" class="icon" viewBox="0 0 1024 1024" version="1.1" xmlns="http://www.w3.org/2000/svg"
  p-id="19115" width="200" height="200">
  <path
    d="M809.2 924.48H235.9c-89.6 0-162.9-76.6-162.9-170.3v-511.4c0-93.7 73.3-170.3 162.9-170.3l115 2c20.1 0 39.5 7.6 54.7 21.5l86 80.9c15.1 13.9 34.5 21.5 54.7 21.5h263c89.6 0 162.9 76.6 162.9 170.3v385.5c-0.1 93.7-73.4 170.3-163 170.3z"
    fill="#6477FF" p-id="19116"></path>
  <path
    d="M761.2 888.48H284c-116 0-210.9-94.9-210.9-210.9v-297c0-25.5 20.7-46.1 46.1-46.1h806.7c25.5 0 46.1 20.7 46.1 46.1v297c0.1 116-94.8 210.9-210.8 210.9z"
    fill="#465CDB" opacity=".69" p-id="19117"></path>
  <path
    d="M829 738.48H216.1c-31.4 0-57-25.7-57-57v-318c0-31.4 25.7-57 57-57H829c31.4 0 57 25.7 57 57v317.9c0.1 31.4-25.6 57.1-57 57.1z"
    fill="#FFFFFF" p-id="19118"></path>
  <path
    d="M831 719.48H218.1c-31.4 0-57-25.7-57-57v-318c0-31.4 25.7-57 57-57H831c31.4 0 57 25.7 57 57v317.9c0.1 31.4-25.6 57.1-57 57.1z"
    fill="#FFFFFF" opacity=".16" p-id="19119"></path>
  <path d="M807.3 924.48H237.8c-90.6 0-164.8-74.1-164.8-164.8v-356.2h899v356.2c0.1 90.7-74.1 164.8-164.7 164.8z"
    fill="#6477FF" p-id="19120"></path>
  <path d="M805.3 924.48H235.8c-90.6 0-164.8-74.1-164.8-164.8v-17.2h899v17.2c0.1 90.7-74.1 164.8-164.7 164.8z"
    fill="#465CDB" opacity=".14" p-id="19121"></path>
  <path
    d="M595.6 598.48H413.1c-39.9 0-72.5-32.6-72.5-72.5s32.6-72.5 72.5-72.5h182.5c39.9 0 72.5 32.6 72.5 72.5s-32.6 72.5-72.5 72.5z"
    fill="#5D75CE" opacity=".52" p-id="19122"></path>
  <path
    d="M585.5 583.48H423.6c-31.6 0-57.5-25.9-57.5-57.5s25.9-57.5 57.5-57.5h161.9c31.6 0 57.5 25.9 57.5 57.5s-25.9 57.5-57.5 57.5z"
    fill="#FFD629" p-id="19123"></path>
</svg>