<svg t="1657616604363" class="icon" viewBox="0 0 1024 1024" version="1.1" xmlns="http://www.w3.org/2000/svg"
  p-id="20192" width="200" height="200">
  <path
    d="M113.777778 303.407407m104.296296 0l701.62963 0q104.296296 0 104.296296 104.296297l0 493.037037q0 104.296296-104.296296 104.296296l-701.62963 0q-104.296296 0-104.296296-104.296296l0-493.037037q0-104.296296 104.296296-104.296297Z"
    fill="#6160F4" fill-opacity=".1" p-id="20193"></path>
  <path
    d="M75.851852 644.740741a37.925926 37.925926 0 1 1-75.851852 0V208.592593C0 124.804741 67.915852 56.888889 151.703704 56.888889h369.777777a151.22963 151.22963 0 0 1 97.848889 35.77363c1.46963 1.242074 3.043556 2.541037 4.778667 3.953777 3.271111 2.654815 15.995259 12.705185 18.460444 14.686815a426.571852 426.571852 0 0 1 22.044445 18.773333c17.938963 16.45037 33.896296 34.607407 49.303704 57.040593a37.925926 37.925926 0 0 1-62.511408 42.951111c-20.973037-30.53037-21.788444-31.279407-75.102815-74.56237-2.104889-1.706667-4.048593-3.318519-5.916444-4.892445A75.377778 75.377778 0 0 0 521.481481 132.740741H151.703704a75.851852 75.851852 0 0 0-75.851852 75.851852v436.148148z"
    fill="#635FF1" p-id="20194"></path>
  <path
    d="M151.703704 265.481481a75.851852 75.851852 0 0 0-75.851852 75.851852v436.148148a75.851852 75.851852 0 0 0 75.851852 75.851852h663.703703a75.851852 75.851852 0 0 0 75.851852-75.851852V341.333333a75.851852 75.851852 0 0 0-75.851852-75.851852H151.703704z m0-75.851851h663.703703c83.787852 0 151.703704 67.915852 151.703704 151.703703v436.148148c0 83.787852-67.915852 151.703704-151.703704 151.703704H151.703704C67.915852 929.185185 0 861.269333 0 777.481481V341.333333c0-83.787852 67.915852-151.703704 151.703704-151.703703z"
    fill="#625FF4" p-id="20195"></path>
  <path
    d="M369.938963 606.814815A38.001778 38.001778 0 0 1 331.851852 568.888889c0-20.954074 17.047704-37.925926 38.087111-37.925926h227.233185A38.001778 38.001778 0 0 1 635.259259 568.888889c0 20.954074-17.047704 37.925926-38.087111 37.925926H369.938963z"
    fill="#6160F4" p-id="20196"></path>
  <path
    d="M521.481481 682.505481A38.001778 38.001778 0 0 1 483.555556 720.592593c-20.954074 0-37.925926-17.047704-37.925926-38.087112V455.272296A38.001778 38.001778 0 0 1 483.555556 417.185185c20.954074 0 37.925926 17.047704 37.925925 38.087111v227.233185z"
    fill="#6160F4" p-id="20197"></path>
</svg>