<svg t="1642251439825" class="icon" viewBox="0 0 1024 1024" version="1.1" xmlns="http://www.w3.org/2000/svg"
  p-id="29741" width="200" height="200">
  <path
    d="M192 0h448.1536L960 320v576c0 70.6944-57.3056 128-128 128H192C121.3056 1024 64 966.6944 64 896V128C64 57.3056 121.3056 0 192 0z"
    fill="#8043FF" p-id="29742"></path>
  <path d="M640 0l320 320H768c-70.6944 0-128-57.3056-128-128V0z" fill="#A57AFF" p-id="29743"></path>
  <path
    d="M408.064 690.5856V434.4704c0-10.88 9.024-19.6864 20.16-19.6864h221.6576c11.136 0 20.16 8.8192 20.16 19.6864v236.352c0 0.5376-0.0256 1.0624-0.064 1.5744 0.0384 1.2416 0.064 2.56 0.064 3.9168v23.9872c0 38.0672-31.5776 68.9152-70.528 68.9152h-20.16c-38.9504 0-70.528-30.848-70.528-68.9152 0-38.0544 31.5776-68.9152 70.528-68.9152h44.6976c2.0352 0 3.9168 0.0384 5.6832 0.128v-98.5856H448.3712v226.4448c0 38.0672-31.5776 68.9152-70.528 68.9152h-20.16c-38.9504 0-70.528-30.848-70.528-68.9152 0-38.0544 31.5776-68.9152 70.528-68.9152h44.6976c2.048 0 3.9168 0.0384 5.6832 0.128z"
    fill="#EADFFF" p-id="29744"></path>
</svg>