<svg t="1642251263111" class="icon" viewBox="0 0 1024 1024" version="1.1" xmlns="http://www.w3.org/2000/svg"
  p-id="27209" width="200" height="200">
  <path
    d="M192 384h640a42.666667 42.666667 0 0 1 42.666667 42.666667v362.666666a42.666667 42.666667 0 0 1-42.666667 42.666667H192v106.666667a21.333333 21.333333 0 0 0 21.333333 21.333333h725.333334a21.333333 21.333333 0 0 0 21.333333-21.333333V308.821333L949.909333 298.666667h-126.528A98.048 98.048 0 0 1 725.333333 200.618667V72.661333L716.714667 64H213.333333a21.333333 21.333333 0 0 0-21.333333 21.333333v298.666667zM128 832H42.666667a42.666667 42.666667 0 0 1-42.666667-42.666667V426.666667a42.666667 42.666667 0 0 1 42.666667-42.666667h85.333333V85.333333a85.333333 85.333333 0 0 1 85.333333-85.333333h530.026667L1024 282.453333V938.666667a85.333333 85.333333 0 0 1-85.333333 85.333333H213.333333a85.333333 85.333333 0 0 1-85.333333-85.333333v-106.666667zM83.456 472.490667V746.666667h42.88v-111.744H194.133333c14.656 0 26.026667 3.072 33.706667 9.984 7.338667 6.528 11.733333 17.28 13.226667 32.256l3.285333 33.792c1.450667 15.36 5.12 27.264 11.349333 35.712h46.549334c-8.789333-9.984-14.293333-23.424-15.765334-40.32l-4.394666-44.16c-2.922667-26.88-15.744-42.624-38.485334-48v-0.768a56.96 56.96 0 0 0 33.365334-24.192 67.584 67.584 0 0 0 10.986666-38.016c0-26.112-8.426667-46.08-24.533333-59.904-15.402667-12.672-36.672-18.816-63.424-18.816H83.456z m42.88 38.4H194.133333c17.6 0 30.421333 3.072 38.485334 9.984 8.064 6.528 12.096 17.28 12.096 32.256 0 13.824-4.053333 24.576-12.096 32.256-8.789333 7.296-21.632 11.136-38.485334 11.136H126.336v-85.632z m286.976-38.4L313.258667 746.666667h45.802666l23.829334-68.736h109.589333L516.309333 746.666667h45.802667l-100.053333-274.176h-48.746667z m-17.6 168.576l41.429333-120.192h1.450667l41.066667 120.192h-83.946667z m192.064-168.576V746.666667h42.88v-111.744h67.797333c14.656 0 26.026667 3.072 33.706667 9.984 7.338667 6.528 11.733333 17.28 13.226667 32.256l3.285333 33.792c1.472 15.36 5.12 27.264 11.370667 35.712h46.528c-8.789333-9.984-14.293333-23.424-15.744-40.32l-4.394667-44.16c-2.944-26.88-15.786667-42.624-38.485333-48v-0.768a56.96 56.96 0 0 0 33.344-24.192 67.584 67.584 0 0 0 10.986666-38.016c0-26.112-8.426667-46.08-24.533333-59.904-15.402667-12.672-36.672-18.816-63.424-18.816h-116.544z m42.88 38.4h67.797333c17.6 0 30.421333 3.072 38.485334 9.984 8.064 6.528 12.096 17.28 12.096 32.256 0 13.824-4.032 24.576-12.096 32.256-8.789333 7.296-21.610667 11.136-38.485334 11.136h-67.797333v-85.632z"
    fill="#8D51DB" p-id="27210"></path>
</svg>