<svg t="1642251491704" class="icon" viewBox="0 0 1024 1024" version="1.1" xmlns="http://www.w3.org/2000/svg"
  p-id="30537" width="200" height="200">
  <path
    d="M140.8 0h499.2l320 320v627.2a76.8 76.8 0 0 1-76.8 76.8H140.8a76.8 76.8 0 0 1-76.8-76.8V76.8a76.8 76.8 0 0 1 76.8-76.8z"
    fill="#E14A4A" p-id="30538"></path>
  <path d="M640 0l320 320H768c-70.6944 0-128-57.3056-128-128V0z" fill="#FF7C83" p-id="30539"></path>
  <path
    d="M441.408 443.776C416.768 429.8496 396.8 441.472 396.8 469.8624v212.3136c0 28.3392 20.032 39.9744 44.608 26.0864l189.3888-107.0464c24.6272-13.9136 24.576-36.5312 0-50.4192L441.408 443.776z"
    fill="#FFE2E4" p-id="30540"></path>
</svg>