<svg t="1639979081389" class="icon" viewBox="0 0 1024 1024" version="1.1" xmlns="http://www.w3.org/2000/svg" p-id="6481"
  width="128" height="128">
  <path
    d="M903.872912 0H120.127088A120.127088 120.127088 0 0 0 0 120.127088v783.745824a120.127088 120.127088 0 0 0 120.127088 120.127088h783.745824a120.127088 120.127088 0 0 0 120.127088-120.127088V120.127088A120.127088 120.127088 0 0 0 903.872912 0z m-433.79226 176.019552a41.710794 41.710794 0 0 1 83.421588 0v226.072505a41.710794 41.710794 0 0 1-83.421588 0z m61.731975 750.794297C142.233809 946.000815-20.021181 473.000407 245.25947 216.061914c38.791039-37.539715 97.603259 21.689613 58.81222 58.81222C83.421589 488.016293 224.821181 875.92668 545.577189 841.306721c291.97556-30.031772 371.226069-384.573523 166.843178-571.020774-39.625255-36.288391 19.604073-95.100611 58.81222-58.81222 263.195112 239.837067 132.640326 697.821589-239.41996 715.75723z"
    fill="#E44D26" p-id="6482"></path>
</svg>