<svg t="1639981144258" class="icon" viewBox="0 0 1024 1024" version="1.1" xmlns="http://www.w3.org/2000/svg" p-id="2235"
  width="128" height="128">
  <path
    d="M812.8 57.6H211.2C128 57.6 57.6 128 57.6 211.2v595.2c0 89.6 70.4 160 160 160h595.2c89.6 0 160-70.4 160-160V211.2C966.4 128 896 57.6 812.8 57.6zM352 294.4c6.4-19.2 19.2-38.4 38.4-57.6 19.2-19.2 38.4-32 57.6-38.4 19.2-6.4 38.4-12.8 64-12.8s44.8 6.4 64 12.8c19.2 6.4 38.4 19.2 57.6 38.4 19.2 19.2 32 38.4 38.4 57.6 6.4 19.2 12.8 44.8 12.8 64 0 25.6-6.4 44.8-12.8 64-12.8 25.6-25.6 44.8-44.8 64-12.8 12.8-32 25.6-51.2 32-25.6 12.8-44.8 12.8-64 12.8-25.6 0-44.8-6.4-64-12.8-25.6-6.4-44.8-19.2-57.6-32-19.2-19.2-32-38.4-38.4-57.6-6.4-25.6-12.8-44.8-12.8-70.4 0-25.6 6.4-44.8 12.8-64z m428.8 492.8c-6.4 19.2-19.2 25.6-38.4 38.4-19.2 12.8-38.4 12.8-64 12.8H339.2c-25.6 0-44.8-6.4-64-12.8-19.2-12.8-32-25.6-38.4-38.4-6.4-19.2-6.4-44.8 0-64 6.4-6.4 6.4-19.2 12.8-25.6 44.8-96 147.2-166.4 262.4-166.4 83.2 0 160 32 211.2 89.6 25.6 25.6 38.4 44.8 51.2 70.4 6.4 6.4 12.8 19.2 12.8 25.6 6.4 12.8 6.4 25.6 6.4 38.4-6.4 12.8-6.4 25.6-12.8 32z"
    p-id="2236" fill="#1677FF"></path>
</svg>