<?xml version="1.0" encoding="UTF-8"?>
<svg width="1448px" height="809px" viewBox="0 0 1448 809" version="1.1" xmlns="http://www.w3.org/2000/svg"
        xmlns:xlink="http://www.w3.org/1999/xlink">
        <!-- Generator: Sketch 60.1 (88133) - https://sketch.com -->
        <title>云端电脑</title>
        <desc>Created with Sketch.</desc>
        <defs>
                <path d="M207.411726,21.527882 C307.639894,-15.2609516 376.069849,-4.84795153 412.70159,52.7668822 C444.973133,43.1402273 466.346628,54.6282181 476.822075,87.2308545 C530.269058,82.3652354 558.704398,108.270798 562.128093,164.947542 L-4.54747351e-13,166.449061 L207.411726,21.527882 Z"
                        id="path-1"></path>
                <path d="M0,181.002413 L829.031165,163.545243 C829.797748,137.10832 821.369927,121.248922 803.747702,115.96705 C805.880018,81.4750542 788.257008,55.1818562 750.878671,37.0874559 C694.811166,9.94585538 647.074296,65.3902177 647.074296,65.3902177 C625.010282,38.9849112 599.919456,36.2438497 571.801816,57.1670332 C521.550619,-5.76836853 439.427136,-16.2299603 325.431367,25.7822579 C211.435598,67.7944761 102.958476,119.534528 0,181.002413 Z"
                        id="path-3"></path>
                <path d="M85.2509028,162.074319 L431.361334,1.59439906 C446.711967,-2.78781014 453.136613,1.86336411 450.635274,15.5479218 C448.133934,29.2324795 426.341136,184.033395 385.25688,479.950668 L-1.42108547e-13,536.410275 C34.0313895,330.994075 52.9656529,219.861557 56.8027901,203.012722 C60.9606586,182.627092 70.4433628,168.980958 85.2509028,162.074319 Z"
                        id="path-5"></path>
                <path d="M9.09494702e-13,162.878629 C193.725458,150.676775 322.229574,132.690482 385.512347,108.91975 C480.436508,73.2636526 445.661939,49.4929209 523.299861,73.2636526 C533.919982,54.07494 551.103451,49.2031443 574.850269,58.6482657 C611.574298,3.37781594 656.85485,-12.0982344 710.691926,12.2201147 C758.533535,-3.84141071 792.606247,5.53883289 812.910061,40.3608455 C843.365782,92.5938645 812.910061,147.00738 651.362427,181.83338 C543.664003,205.050713 326.543195,198.732463 9.09494702e-13,162.878629 Z"
                        id="path-7"></path>
                <path d="M14.8750327,114.841145 C25.765224,137.727404 44.1077617,183.237399 129.618631,260.566276 C159.66298,254.913437 179.366515,243.197722 188.729237,225.41913 C171.028085,138.507756 149.68418,80.1313751 124.697522,50.2899888 C87.2175344,5.52790944 44.0641589,-8.35640442 20.9503633,5.2293578 C-2.16343223,18.81512 -7.06221822,64.5122876 14.8750327,114.841145 Z"
                        id="path-9"></path>
        </defs>
        <g id="页面-1" stroke="none" stroke-width="1" fill="none" fill-rule="evenodd">
                <g id="画板" transform="translate(-4664.000000, -679.000000)">
                        <g id="云端电脑" transform="translate(4585.000000, 679.000000)">
                                <g id="编组-18" transform="translate(475.000000, 227.000000)">
                                        <path d="M29.8177181,0.867858717 C63.9577371,8.47999186 174.778814,29.8223907 205.264578,35.0985044 C235.750342,40.374618 232.894014,84.0344209 194.881527,76.9652367 C190.240906,76.10222 184.558323,75.0436638 178.102983,73.8395808 L178.100217,90.2040816 L164.279946,71.2593371 C116.220298,62.2823792 42.8710646,48.5234774 19.0638667,43.8848911 C-10.8168196,38.0629485 -4.322301,-6.74427443 29.8177181,0.867858717 Z"
                                                id="形状结合" fill="#FEC047"></path>
                                        <ellipse id="椭圆形" fill="#FFFFFF" cx="26.6929134" cy="22.5510204" rx="14.2362205"
                                                ry="13.877551"></ellipse>
                                        <path d="M56.4213799,17.4522274 C107.49802,27.4616927 185.92332,43.3019879 192.979035,44.9107661 C200.03475,46.5195443 197.965056,52.8809925 192.979035,51.9478581 C187.993014,51.0147238 64.2984154,26.6179318 56.4213799,24.9264702 C48.5443444,23.2350085 51.6424738,16.4231748 56.4213799,17.4522274 Z"
                                                id="路径-369" fill="#FFFFFF"></path>
                                        <path d="M52.8623248,31.3297784 C103.938964,41.3392437 182.364265,57.1795389 189.41998,58.7883171 C196.475695,60.3970953 194.406001,66.7585435 189.41998,65.8254091 C184.433959,64.8922748 60.7393602,40.4954828 52.8623248,38.8040212 C44.9852893,37.1125596 48.0834187,30.3007258 52.8623248,31.3297784 Z"
                                                id="路径-369备份" fill="#FFFFFF"></path>
                                        <path d="M29.0333046,82.2584653 C61.7891685,89.0878621 175.618437,110.3433 205.657959,115.87808 C235.69748,121.41286 232.675268,164.405955 195.205205,156.997474 C190.562989,156.079627 184.839183,154.977528 178.315022,153.740067 L178.31124,170 L164.160566,151.076274 C116.337444,142.134076 43.4784652,128.994094 19.2891331,124.469287 C-11.2206659,118.762185 -3.72255937,75.4290685 29.0333046,82.2584653 Z"
                                                id="形状结合备份-3" fill="#57E4C3"></path>
                                        <ellipse id="椭圆形备份-23" fill="#FFFFFF" cx="32.0314961" cy="105.816327"
                                                rx="14.2362205" ry="13.877551"></ellipse>
                                        <path d="M61.7599625,100.717533 C112.836602,110.726999 191.261903,126.567294 198.317618,128.176072 C205.373333,129.78485 203.303639,136.146299 198.317618,135.213164 C193.331597,134.28003 69.636998,109.883238 61.7599625,108.191776 C53.8829271,106.500315 56.9810565,99.6884809 61.7599625,100.717533 Z"
                                                id="路径-369备份-2" fill="#FFFFFF"></path>
                                        <path d="M58.2009074,114.595085 C109.277547,124.60455 187.702848,140.444845 194.758563,142.053623 C201.814278,143.662401 199.744584,150.02385 194.758563,149.090715 C189.772541,148.157581 66.0779429,123.760789 58.2009074,122.069327 C50.3238719,120.377866 53.4220014,113.566032 58.2009074,114.595085 Z"
                                                id="路径-369备份-3" fill="#FFFFFF"></path>
                                </g>
                                <g id="编组-12">
                                        <g id="路径-17" transform="translate(887.671874, 468.104600)">
                                                <mask id="mask-2" fill="white">
                                                        <use xlink:href="#path-1"></use>
                                                </mask>
                                                <use id="蒙版" fill="#96DBFF" xlink:href="#path-1"></use>
                                        </g>
                                        <g id="路径-18" transform="translate(657.954738, 556.970758)">
                                                <mask id="mask-4" fill="white">
                                                        <use xlink:href="#path-3"></use>
                                                </mask>
                                                <use id="蒙版" fill="#C7FAFF" xlink:href="#path-3"></use>
                                        </g>
                                        <path d="M700.799078,480.435328 C643.807574,452.687226 594.892783,459.924043 554.054705,502.145781 C545.10775,514.41584 540.160977,523.141836 539.214386,528.323768 C524.186816,524.404956 513.016225,527.430787 505.702613,537.401262 C445.620251,498.873017 382.172377,506.841545 315.358993,561.306844 C217.394062,509.326746 155.356833,531.748379 129.247308,628.571743 C93.8079682,638.628281 77.3113487,666.377665 79.7574493,711.819897 C127.736869,710.347099 163.721434,709.242501 187.711143,708.506102 C231.243322,707.169819 283.07682,705.578715 343.211638,703.73279 C373.333301,731.604113 492.712084,727.939608 701.347988,692.739276 L700.799078,480.435328 Z"
                                                id="路径-390" fill="#96DBFF"></path>
                                        <path d="M170.84646,669.084283 C176.862188,638.209054 195.154966,627.489484 225.724793,636.925573 C241.616127,615.847447 275.898718,598.303547 306.129151,616.359975 C317.836519,599.01404 372.784747,601.774036 410.642035,621.880426 C438.273276,598.36463 461.389343,598.775185 479.990237,623.112091 C498.117334,573.345085 527.62828,561.769053 568.523075,588.383996 C605.308897,541.478517 644.180575,538.870672 685.138109,580.560462 L938.342466,581.529181 C699.596747,656.951813 559.67879,701.055827 518.588595,713.841224 C447.762486,742.13157 397.060314,742.13157 366.482079,713.841224 C322.765468,752.163556 275.846372,761.395845 225.724793,741.538092 C204.175859,755.728569 170.997247,740.643961 170.84646,717.997222 C154.826513,728.440259 127.232877,718.551711 127.232877,694.590421 C127.232877,678.616228 141.770738,670.114182 170.84646,669.084283 Z"
                                                id="路径-2" fill="#C7FAFF"></path>
                                        <path d="M250.289823,657.329482 C265.551706,626.961942 288.191156,620.302632 318.208173,637.351552 C345.157469,608.431686 378.906408,605.481738 419.454991,628.501709 C434.11447,615.679071 446.644556,615.80878 457.045248,628.890835 C479.456442,604.953268 503.954231,603.530177 530.538616,624.621564 C543.025153,624.037504 550.01476,628.043652 551.507438,636.640007 C602.468727,624.044174 629.893306,627.779046 633.781177,647.844621 C637.669047,667.910196 605.136091,677.676154 536.182308,677.142495 C479.39674,708.817876 432.413058,714.284484 395.231259,693.54232 C366.358302,712.325011 344.111543,713.638836 328.490983,697.483794 C291.417306,718.498097 265.350253,717.752456 250.289823,695.246874 C239.638866,690.246545 232.955459,693.54232 232.955459,679.172448 C232.955459,669.592534 238.73358,662.311545 250.289823,657.329482 Z"
                                                id="路径-3" fill="#E7FDFF"></path>
                                        <path d="M1154.07992,2.27373675e-13 C1167.21219,2.02866574 1173.77833,11.7085946 1173.77833,29.0397867 C1173.77833,46.3709788 1149.29259,220.596523 1100.32111,551.716419 C1095.53386,565.191648 1083.75684,570.680655 1064.99005,568.18344 L1008.29713,98.968492 L1154.07992,2.27373675e-13 Z"
                                                id="路径-327" fill="#DFE0FF"></path>
                                        <path d="M666.177034,607.293732 L734.093389,223.197699 C739.27351,200.708823 748.708732,186.06074 762.399054,179.25345 C776.089376,172.44616 903.731602,113.123462 1145.32573,1.28535611 C1161.71563,-4.06551066 1167.18445,7.29014555 1161.73218,35.3523248 C1156.27992,63.414504 1132.02674,236.65845 1088.97264,555.084162 C1085.86985,563.132222 1079.33238,567.156252 1069.36022,567.156252 C1059.38806,567.156252 924.993669,580.535412 666.177034,607.293732 Z"
                                                id="路径-326" fill="#F2F3FF"></path>
                                        <g id="椭圆形" transform="translate(688.071180, 37.983727)">
                                                <mask id="mask-6" fill="white">
                                                        <use xlink:href="#path-5"></use>
                                                </mask>
                                                <use id="蒙版" fill="#382346" xlink:href="#path-5"></use>
                                                <ellipse id="椭圆形备份-17" fill="#F996BC" mask="url(#mask-6)"
                                                        cx="317.079074" cy="188.891512" rx="48.1697313" ry="47.5414634">
                                                </ellipse>
                                                <ellipse fill="#A07BFE" mask="url(#mask-6)" cx="376.196471"
                                                        cy="283.974438" rx="89.7708628" ry="88.6"></ellipse>
                                                <ellipse fill="#B4E5FF" mask="url(#mask-6)" cx="287.520375"
                                                        cy="408.230536" rx="141.224894" ry="139.382927"></ellipse>
                                        </g>
                                        <polygon id="路径-331" fill="#FEFEFF"
                                                points="201.437058 786.711174 666.177034 607.293732 1071.91193 550.100695 584.718997 759.661472 220.55532 795.774921">
                                        </polygon>
                                        <path d="M201.437058,786.711174 L567.145532,751.787022 L594.845393,763.535339 C378.926368,785.624243 256.693132,797.489461 228.145683,799.130994 C215.088107,800.047397 206.185232,795.907456 201.437058,786.711174 Z"
                                                id="路径-330" fill="#CDCEF0"></path>
                                        <path d="M1071.91193,550.100695 L567.145532,751.787022 C578.515434,765.166112 594.878281,767.11803 616.234075,757.642775 C637.589868,748.167521 791.514704,683.762878 1078.00858,564.428847 L1071.91193,550.100695 Z"
                                                id="路径-329" fill="#DFE0FF"></path>
                                        <polygon id="路径-332" fill="#C5C7E7"
                                                points="404.812448 721.66481 688.07118 688.959311 976.617853 577.95224 666.177034 619.566145">
                                        </polygon>
                                        <polygon id="路径-333" fill="#A7A9CF"
                                                points="442.275038 721.389954 567.90185 711.231533 569.527291 712.779181 486.346706 750.900823 481.615 752.07405 341.610829 766.43595 341.231339 765.293199 436.875053 722.558831">
                                        </polygon>
                                        <path d="M1102.58448,133.953288 C1111.74222,133.953288 1121.53059,131.089873 1128.97988,126.95069 C1133.15016,96.8059969 1138.29921,69.8486049 1140.45474,47.8589437 C1131.13801,38.6290885 1116.82813,32.3874339 1102.58448,32.3874339 C1074.16721,32.3874339 1051.13045,55.1237247 1051.13045,83.1703608 C1051.13045,111.216997 1074.16721,133.953288 1102.58448,133.953288 Z"
                                                id="椭圆形" fill="#42F4DA"></path>
                                        <ellipse id="椭圆形" fill="#42F4DA" cx="673.903838" cy="612.798233" rx="53.6435644"
                                                ry="52.9439024"></ellipse>
                                        <ellipse id="椭圆形" fill="#AEAAF4" cx="810.127298" cy="291.731707" rx="43.7906648"
                                                ry="43.2195122"></ellipse>
                                        <ellipse id="椭圆形" fill="#64FFC0" cx="904.277228" cy="140.463415" rx="24.0848656"
                                                ry="23.7707317"></ellipse>
                                        <ellipse id="椭圆形" fill="#FEC047" cx="742.251768" cy="460.287805" rx="15.3267327"
                                                ry="15.1268293"></ellipse>
                                        <ellipse id="椭圆形" fill="#96DBFF" cx="635.776966" cy="146.121087" rx="43.7906648"
                                                ry="43.2195122"></ellipse>
                                        <ellipse id="椭圆形" fill="#96DBFF" cx="685.041464" cy="207.708892" rx="18.6110325"
                                                ry="18.3682927"></ellipse>
                                        <ellipse id="椭圆形" fill="#57E4C3" cx="1230.71139" cy="125.14516" rx="22.0890411"
                                                ry="21.8011811"></ellipse>
                                        <ellipse id="椭圆形" fill="#57E4C3" cx="1207.52758" cy="165.314634" rx="7.66336634"
                                                ry="7.56341463"></ellipse>
                                        <g id="路径-36" transform="translate(702.840170, 612.642662)">
                                                <mask id="mask-8" fill="white">
                                                        <use xlink:href="#path-7"></use>
                                                </mask>
                                                <use id="蒙版" fill="#E7FDFF" xlink:href="#path-7"></use>
                                        </g>
                                </g>
                                <g id="编组-27" transform="translate(320.000000, 277.000000)">
                                        <path d="M152.380647,253.380038 C161.142253,273.877538 164.536519,285.825713 162.563446,289.224565 C154.545633,292.625505 151.615588,299.109525 153.773313,308.676626 C136.95966,305.018893 126.345316,309.516422 121.93028,322.169212 C115.307725,341.148398 134.353793,347.148582 134.353793,347.148582 C141.609141,371.411333 157.316441,380.202314 181.475693,373.521523 C210.417867,386.618224 227.49392,377.827244 232.70385,347.148582 C248.288194,356.998086 271.026156,338.873824 266.906235,322.169212 C282.03382,307.822935 277.789555,282.927801 257.235162,282.927801 C245.789409,261.274423 229.840921,258.596057 209.389697,274.892705 C195.569887,263.666889 184.133429,251.352836 175.080323,237.950545 L153.748416,230.091743 L152.380647,253.380038 Z"
                                                id="路径-409" fill="#FFFFFF"></path>
                                        <ellipse id="椭圆形" fill="#FFFFFF" cx="111.797468" cy="318.990826" rx="3.49367089"
                                                ry="3.48623853"></ellipse>
                                        <ellipse id="椭圆形" fill="#FFFFFF" cx="137.126582" cy="295.458716" rx="4.36708861"
                                                ry="4.35779817"></ellipse>
                                        <ellipse id="椭圆形" fill="#FFFFFF" cx="122.278481" cy="284.12844" rx="6.98734177"
                                                ry="6.97247706"></ellipse>
                                        <ellipse id="椭圆形" fill="#FFFFFF" cx="260.278481" cy="254.495413" rx="5.24050633"
                                                ry="5.2293578"></ellipse>
                                        <ellipse id="椭圆形" fill="#FFFFFF" cx="260.278481" cy="271.926606" rx="3.49367089"
                                                ry="3.48623853"></ellipse>
                                        <path d="M157.229392,250.495258 L180.974992,275.533059 C177.972248,263.232206 174.689028,252.717967 171.125332,243.990343 C167.561636,235.262719 162.929656,237.431024 157.229392,250.495258 Z"
                                                id="路径-410" fill="#CCE3E6"></path>
                                        <g id="路径-352-+-路径-402-+-路径-353-蒙版">
                                                <path d="M136.920655,259.1265 C140.02712,262.528224 143.95413,263.521612 148.701684,262.106666 C155.823014,259.984247 181.506184,247.215096 186.321553,239.422955 C189.531799,234.228195 189.531799,229.014027 186.321553,223.780449 L136.920655,259.1265 Z"
                                                        id="路径-408" fill="#1D36C4"></path>
                                                <mask id="mask-10" fill="white">
                                                        <use xlink:href="#path-9"></use>
                                                </mask>
                                                <use id="蒙版" fill="#6890FF" xlink:href="#path-9"></use>
                                                <path d="M104.54029,242.000672 C136.252328,242.000672 164.627534,226.550485 189.665907,195.650111 L190.887928,211.685724 C174.944668,238.502433 149.702893,251.910788 115.162605,251.910788 L107.288719,247.265361 L104.54029,242.000672 Z"
                                                        id="路径-352" fill="#2361E9" opacity="0.520414807"
                                                        mask="url(#mask-10)"></path>
                                                <path d="M6.64522592,110.368543 C68.365787,116.073593 106.753984,94.3679093 121.809818,45.2514906 L105.776314,22.5403353 L71.7642863,49.9985027 L-7.71163939,81.6080642 L6.64522592,110.368543 Z"
                                                        id="路径-402" fill="#3E7AFF" mask="url(#mask-10)"></path>
                                                <path d="M-7.71163939,97.0794766 C59.6975171,100.621929 99.9930816,77.253301 113.175054,26.9735934 L77.5566533,-8.61851158 L7.25556055,-3.42613097 C-5.19023604,16.3142671 -12.4464873,33.1234908 -14.5131933,47.0015399 C-16.5798992,60.8795891 -14.3127146,77.5722347 -7.71163939,97.0794766 Z"
                                                        id="路径-353" fill="#88A7FF" mask="url(#mask-10)"></path>
                                        </g>
                                        <ellipse id="椭圆形" fill="#255EFD" cx="119.651127" cy="168.601708" rx="30.2216734"
                                                ry="29.2122746"></ellipse>
                                        <ellipse id="椭圆形备份-26" fill="#376BFF" cx="120.730472" cy="170.765581"
                                                rx="26.9836369" ry="27.0484024"></ellipse>
                                        <ellipse id="椭圆形备份-27" fill="#1D36C4" cx="121.809818" cy="169.683644"
                                                rx="23.7456005" ry="23.8025941"></ellipse>
                                        <path d="M71.4966646,195.650111 L68.2707775,195.650111 C53.6998698,231.139127 62.1918891,258.548175 93.7468354,277.877254 L72.7386808,200.478538 L71.4966646,195.650111 Z"
                                                id="路径-406" fill="#1D36C4"></path>
                                        <path d="M71.6226255,195.650111 C55.7482939,228.928507 63.2140866,256.162963 94.0200036,277.35348 C96.9912599,278.455809 98.5153527,277.818175 98.5922822,275.440578 C98.7076764,271.874182 92.8404172,244.374746 119.651127,231.575308 L71.6226255,195.650111 Z"
                                                id="路径-351" fill="#3575FF"></path>
                                        <path d="M167.142328,139.389434 C196.195115,140.995439 214.654454,156.782836 222.520343,186.751624 C224.84552,201.025305 221.74943,205.370302 213.232076,199.786613 C200.456043,191.411081 180.498997,190.538119 171.915228,198.700897 L167.142328,139.389434 Z"
                                                id="路径-407备份" fill="#1D36C4"></path>
                                        <path d="M167.142328,141.553306 C195.89885,143.081925 214.211165,159.111574 222.079273,189.642253 C225.1044,203.446174 222.357085,207.503945 213.837327,201.815566 C201.057691,193.282999 180.046074,193.499742 171.459883,201.815566 L167.142328,141.553306 Z"
                                                id="路径-407" fill="#3575FF"></path>
                                </g>
                                <path d="M510,103 L539,144.8 L521.85,144.8 L521.850962,191 L497.3125,191 L497.312,144.8 L481,144.8 L510,103 Z"
                                        id="形状结合" fill="#FF5050"></path>
                                <path d="M1357.5,416 L1378,443.444444 L1366.611,443.444 L1366.61111,473 L1348.38889,473 L1348.388,443.444 L1337,443.444444 L1357.5,416 Z"
                                        id="形状结合备份-5" fill="#FF5050"></path>
                                <path d="M246.5,285 L267,312.444444 L255.611,312.444 L255.611111,342 L237.388889,342 L237.388,312.444 L226,312.444444 L246.5,285 Z"
                                        id="形状结合备份-6" fill="#57E4C3"></path>
                                <path d="M735,734.805213 C837.809239,729.8763 908.145727,716.509571 946.009464,694.705025 C983.873202,672.90048 1015.45513,675.114266 1040.75525,701.346385 C1044.42916,691.01623 1054.83718,685.781546 1071.97929,685.642331 C1073.12796,672.042877 1078.23256,664.597278 1087.29309,663.305534 C1096.35362,662.01379 1104.59347,664.817997 1112.01264,671.718156 C1124.959,665.394028 1135.79822,666.133692 1144.53031,673.937148 C1153.2624,681.740604 1151.50163,690.877016 1139.24801,701.346385 C1151.01192,700.602914 1158.79577,703.348056 1162.59958,709.58181 C1168.30529,718.932441 1159.46445,738.233009 1081.08022,752.201303 C1009.40609,763.798697 894.04602,758 735,734.805213 Z"
                                        id="路径-411" fill="#A8E1FF"></path>
                                <path d="M618,762 C638.084247,753.369293 652.931919,746.800196 662.543015,742.292708 C696.144036,726.534237 721.138548,712.266083 737.457936,696.867242 C747.675902,669.576443 752.940734,671.068322 778.105032,671.068322 C780.102613,661.785764 785.918948,655.529194 795.554035,652.298613 C810.006667,647.452742 818.274376,659.892104 818.274376,659.892104 C824.286695,652.98784 830.426534,650.857512 836.693892,653.50112 C837.95043,642.742024 843.410287,636.406112 853.073463,634.493384 C862.736638,632.580656 870.426348,636.229311 876.142592,645.43935 C883.684203,640.866507 889.788144,640.866507 894.454415,645.43935 C899.120686,650.012192 899.120686,655.927178 894.454415,663.184306 C898.346521,665.903938 899.034257,669.777509 896.517623,674.805018 C899.209803,684.299881 894.873138,691.915879 891.168585,696.867242 C887.464031,701.818605 859.255231,733.416119 761.310827,744.065842 C714.54322,748.380094 666.772944,754.358147 618,762 Z"
                                        id="路径-412" fill="#96DBFF"></path>
                                <path d="M621,758 C753.60915,728.671251 835.180212,707.965849 865.713189,695.883793 C870.847711,693.852036 865.227253,683.479926 877.283971,679.367692 C889.340688,675.255458 890.663422,684.48285 894.766842,681.884903 C902.675366,676.877877 909.985352,677.80691 913.284045,670.093352 C916.582737,662.379794 925.033869,655.276926 937.293598,660.847798 C941.454349,636.589922 957.320961,623.308236 984.893432,621.002738 C1009.90812,620.782863 1018.26682,633.807985 1009.96953,660.078103 C1021.80378,664.315462 1024.11558,673.306307 1016.90493,687.050638 C1012.14038,698.617743 1000.72171,708.622587 982.648928,717.065169 C927.040024,741.825606 806.490381,755.47055 621,758 Z"
                                        id="路径-413" fill="#E7FDFF"></path>
                                <path d="M739.172613,742.863136 C748.825706,725.583487 762.256727,722.466543 779.465676,733.512302 C823.223348,719.114385 853.591654,725.412522 870.570595,752.406715 C907.694255,740.305083 932.065147,746.937104 943.68327,772.302779 C956.58753,770.277861 963.693106,773.843601 965,783 L706,778.414756 C714.111751,755.452619 725.169288,743.602079 739.172613,742.863136 Z"
                                        id="路径-414" fill="#C7FAFF"></path>
                                <g id="小星球" transform="translate(1176.000000, 244.000000)">
                                        <path d="M43.8257556,3.34896572 C45.2068002,5.11863183 46.7880247,6.49309 48.5694293,7.47234024 C54.6924984,5.6749833 61.1771468,4.71111593 67.889306,4.71111593 C73.4071828,4.71111593 78.7713073,5.36249946 83.9074284,6.59179465 C85.2617084,5.90929944 86.2962562,4.92740208 87.2204443,3.52936168 C89.5535628,2.17603713e-14 98.5368353,2.23047349 104.568675,5.80148305 C110.600514,9.37249261 116.424249,11.3572446 113.256673,19.7078781 C113.035546,20.2908322 112.843534,20.8576012 112.680636,21.4081849 C123.081499,30.4490308 130.663582,42.5873132 133.957308,56.3660739 C135.861479,57.5927747 137.850367,58.5970365 139.921667,59.3798041 C144.876286,61.2522104 146.801919,67.7986434 145.698565,79.019103 C145.1611,87.1408909 140.566472,92.2281216 131.914681,94.2807951 C125.107936,113.338026 109.856981,128.448221 90.6103793,135.210348 C89.3152155,138.913245 85.7730687,143.063993 76.2002993,144.617725 C68.0514309,145.940347 61.8363054,143.830892 57.5549227,138.289359 C46.452717,136.61363 36.2355244,132.274864 27.5886813,125.953541 C20.0520552,129.16896 13.6799715,126.89557 8.77827029,122.67967 C2.71080948,117.461113 -0.956408846,109.339891 3.645143,105.063073 C4.9704793,103.831266 5.85826168,102.210633 6.30849014,100.201175 C2.25961082,91.5972537 0,82.0037282 0,71.8879808 C0,54.1384293 6.95684714,37.9966849 18.3196393,25.9868803 C18.2981916,23.8993686 17.8876822,22.0637478 17.0898836,20.480074 C14.1283649,15.663008 16.88541,10.4066886 25.3610188,4.71111593 C33.8619586,-1.07767685 40.0168708,-1.53172692 43.8257556,3.34896572 Z"
                                                id="形状结合" fill="#57E4C3"></path>
                                        <path d="M27.9764421,9.53050432 C23.686293,11.9145262 20.5078709,14.8059714 22.9973946,16.8753109 C24.6570771,18.2548706 28.3727958,17.5966039 34.1445506,14.900511 C39.0283878,11.8503832 40.7592356,9.48201065 39.3370938,7.79539331 C37.2038812,5.26546731 32.2665912,7.14648244 27.9764421,9.53050432 Z"
                                                id="路径-420" fill="#098266"></path>
                                        <path d="M134.31731,63.7137057 C131.441174,63.814801 127.625516,63.8105313 128.406147,73.6130497 C129.186778,83.415568 132.722279,83.5398276 135.342322,83.4776978 C137.962365,83.415568 139.363636,78.0901006 139.363636,73.2278989 C139.363636,68.3656972 137.193446,63.6126104 134.31731,63.7137057 Z"
                                                id="路径-421" fill="#098266"></path>
                                        <path d="M7.80663019,108.032615 C6.82660356,109.070333 4.58455763,111.638105 11.1826408,118.136647 C17.7807239,124.635189 19.937175,123.354997 21.6357133,121.655851 C23.3342516,119.956705 20.2866418,114.969946 16.9715925,111.510621 C13.6565432,108.051295 8.78665683,106.994897 7.80663019,108.032615 Z"
                                                id="路径-422" fill="#098266"></path>
                                        <ellipse id="椭圆形" fill="#098266" cx="39.8181818" cy="61.5151515" rx="13.2727273"
                                                ry="13.1818182"></ellipse>
                                        <path d="M86.2727273,48.3333333 C93.6030521,48.3333333 99.5454545,44.2305061 99.5454545,37.2090564 C99.5454545,30.1876067 93.6030521,26.3636364 86.2727273,26.3636364 C78.9424024,26.3636364 73,30.1876067 73,37.2090564 C73,44.2305061 78.9424024,48.3333333 86.2727273,48.3333333 Z"
                                                id="椭圆形备份-28" fill="#098266"></path>
                                        <ellipse id="椭圆形" fill="#098266" cx="80.7424242" cy="86.780303" rx="18.8030303"
                                                ry="18.6742424"></ellipse>
                                </g>
                                <g id="小星球备份" transform="translate(263.000000, 481.000000)">
                                        <path d="M17.4102317,1.31648997 C17.9589707,2.01228476 18.5872636,2.55266256 19.2951105,2.93762338 C21.7277587,2.230767 24.3035616,1.85195592 26.9697243,1.85195592 C29.1617193,1.85195592 31.2926367,2.10800809 33.3329811,2.5912319 C33.8708909,2.32315264 34.2819856,1.93711163 34.6492176,1.38740425 C35.5760729,1.08801856e-14 39.1447702,0.876806819 41.5409803,2.28058299 C43.9371904,3.68435916 46.2507289,4.46457201 44.9923769,7.74723483 C44.9043765,7.9768015 44.8279833,8.19998319 44.7631972,8.41677989 C48.8953275,11.9698368 51.9068938,16.740546 53.2155011,22.1559766 C53.9715056,22.6394873 54.7620255,23.0345291 55.5853199,23.3424057 C57.5535932,24.0784551 58.3185705,26.6518805 57.8802519,31.0626818 C57.6667515,34.2551874 55.8417008,36.2549454 52.4050996,37.061956 C49.7007333,44.5532527 43.6420205,50.4933639 35.9959131,53.151651 C35.4815922,54.6070377 34.0745101,56.2389044 30.2713518,56.8497264 C27.0346105,57.3695766 24.5658405,56.5406658 22.8650417,54.3629938 C18.4541292,53.7034704 14.3947975,51.9977118 10.9594452,49.5124516 C7.96569596,50.7766968 5.43443655,49.8830243 3.48725806,48.2258013 C1.07689692,46.1743684 -0.37994324,42.9818882 1.44807051,41.3006562 C1.97466698,40.8163432 2.32737924,40.1791273 2.5062073,39.3890086 C0.897557644,36.0067931 0,32.2357358 0,28.2594131 C0,21.2823756 2.76338401,14.9373052 7.27694218,10.2162882 C7.26921591,9.39523973 7.10613482,8.67347144 6.78913184,8.0507877 C5.61263811,6.15718244 6.70790259,4.09090518 10.0749253,1.85195592 C13.4520109,-0.423638484 15.8971131,-0.602127132 17.4102317,1.31648997 Z"
                                                id="形状结合" fill="#D895FF"></path>
                                        <path d="M11.8309567,4.66151344 C10.0166957,5.45961713 8.67257289,6.42759193 9.72536751,7.12034879 C10.4272306,7.5821867 11.9985707,7.36181749 14.4393879,6.45924115 C16.5047137,5.43814387 17.2366719,4.64527912 16.6352624,4.08064691 C15.7331482,3.2336986 13.6452178,3.86340974 11.8309567,4.66151344 Z"
                                                id="路径-420" fill="#AF0DB9"></path>
                                        <path d="M52.5508318,25.7425249 C51.5778006,25.7801292 50.2869178,25.778541 50.5510147,29.4247725 C50.8151116,33.071004 52.0112137,33.1172247 52.8976057,33.0941144 C53.7839977,33.071004 54.2580645,31.090096 54.2580645,29.2815084 C54.2580645,27.4729208 53.523863,25.7049206 52.5508318,25.7425249 Z"
                                                id="路径-421" fill="#AF0DB9"></path>
                                        <path d="M4.16613033,42.4270171 C3.8108931,42.7992301 2.99820276,43.7202496 5.38985691,46.0511743 C7.78151106,48.382099 8.56317525,47.9229143 9.1788565,47.3134574 C9.79453775,46.7040006 8.68984895,44.9153285 7.48821944,43.674523 C6.28658993,42.4337175 4.52136756,42.0548041 4.16613033,42.4270171 Z"
                                                id="路径-422" fill="#AF0DB9"></path>
                                        <ellipse id="椭圆形" fill="#AF0DB9" cx="14.9677419" cy="23.9032258" rx="5.61290323"
                                                ry="5.51612903"></ellipse>
                                        <path d="M33.6774194,18.3870968 C36.7773402,18.3870968 39.2903226,16.6702073 39.2903226,13.7319767 C39.2903226,10.793746 36.7773402,9.19354839 33.6774194,9.19354839 C30.5774985,9.19354839 28.0645161,10.793746 28.0645161,13.7319767 C28.0645161,16.6702073 30.5774985,18.3870968 33.6774194,18.3870968 Z"
                                                id="椭圆形备份-28" fill="#AF0DB9"></path>
                                        <ellipse id="椭圆形" fill="#AF0DB9" cx="31.8064516" cy="34.9354839" rx="7.48387097"
                                                ry="7.35483871"></ellipse>
                                </g>
                        </g>
                </g>
        </g>
</svg>