<svg id="图层_1" data-name="图层 1" xmlns="http://www.w3.org/2000/svg" viewBox="0 0 400 400">
  <defs>
    <style>
      .cls-1 {
        fill: #cddcff;
      }

      .cls-2 {
        fill: #9ca3b5;
      }

      .cls-3 {
        fill: #313849;
      }

      .cls-4 {
        fill: #f2f7ff;
      }

      .cls-5 {
        fill: #30384a;
      }

      .cls-6 {
        fill: #3e5ccd;
      }

      .cls-7 {
        opacity: 0.1;
      }

      .cls-8 {
        fill: #f1f4ff;
      }

      .cls-9 {
        fill: #fff;
      }

      .cls-10 {
        fill: #eb5068;
      }

      .cls-11 {
        fill: #f7cc5c;
      }

      .cls-12 {
        fill: #58c398;
      }
    </style>
  </defs>
  <title>20200805图标</title>
  <ellipse class="cls-1" cx="200" cy="294.41" rx="82.5" ry="2.57" />
  <polygon class="cls-1" points="187.73 263.31 183.06 289.47 212.95 289.47 208.28 262.38 187.73 263.31" />
  <polygon class="cls-2" points="187.73 263.31 186.04 272.79 209.97 272.74 208.28 262.38 187.73 263.31" />
  <rect class="cls-3" x="168.58" y="286.2" width="58.85" height="8.41" rx="4.2" />
  <path class="cls-4"
    d="M305.31,266.73H94.69A8.69,8.69,0,0,1,86,258V124.42a8.69,8.69,0,0,1,8.69-8.69H305.31a8.69,8.69,0,0,1,8.69,8.69V258A8.69,8.69,0,0,1,305.31,266.73Z" />
  <path class="cls-5"
    d="M305.31,123.73a.69.69,0,0,1,.69.69V258a.69.69,0,0,1-.69.69H94.69A.69.69,0,0,1,94,258V124.42a.69.69,0,0,1,.69-.69H305.31m0-8H94.69A8.69,8.69,0,0,0,86,124.42V258a8.69,8.69,0,0,0,8.69,8.69H305.31A8.69,8.69,0,0,0,314,258V124.42a8.69,8.69,0,0,0-8.69-8.69Z" />
  <rect class="cls-1" x="183.61" y="135.51" width="111.66" height="37.33" />
  <rect class="cls-1" x="183.61" y="181.34" width="111.66" height="64.39" />
  <rect class="cls-1" x="108.24" y="197.27" width="55.83" height="5.79" />
  <rect class="cls-1" x="108.24" y="207.47" width="55.83" height="5.79" />
  <rect class="cls-1" x="108.24" y="217.66" width="55.83" height="5.79" />
  <rect class="cls-1" x="108.24" y="227.86" width="36.43" height="5.79" />
  <rect class="cls-1" x="108.24" y="238.06" width="25.64" height="5.79" />
  <path class="cls-1"
    d="M140.11,159.75l17.2-6.42A24.46,24.46,0,0,0,144.81,142C143.16,148.24,141.18,155.73,140.11,159.75Z" />
  <path class="cls-6" d="M135.64,164.68l.76-2.85c1.51-5.68,3.75-14.16,5.51-20.79a24.48,24.48,0,1,0,16.65,15.09Z" />
  <polygon class="cls-4"
    points="192.04 165.15 191.68 164.22 218.82 153.64 240.76 161.77 279.27 142.89 290.59 139.74 290.85 140.7 279.62 143.82 240.82 162.85 218.83 154.71 192.04 165.15" />
  <g class="cls-7">
    <path class="cls-3" d="M322.79,266.73H214.26V179.2H322.79Z" />
  </g>
  <path class="cls-8" d="M329.18,272.39H220.65V172.07H329.18Z" />
  <path class="cls-5" d="M329.59,272.8H220.24V171.66H329.59ZM221.06,272H328.77v-99.5H221.06Z" />
  <rect class="cls-9" x="220.65" y="172.07" width="108.53" height="13.96" />
  <path class="cls-5" d="M329.59,272.8H220.24V171.66H329.59ZM221.06,272H328.77v-99.5H221.06Z" />
  <rect class="cls-1" x="236.34" y="230.19" width="6.83" height="21.02" />
  <rect class="cls-1" x="250.72" y="215.01" width="6.83" height="36.2" />
  <rect class="cls-1" x="265.11" y="209.18" width="6.83" height="42.03" />
  <rect class="cls-1" x="279.5" y="200.17" width="6.83" height="51.04" />
  <rect class="cls-1" x="293.89" y="205.85" width="6.83" height="45.35" />
  <rect class="cls-1" x="308.27" y="205.85" width="6.83" height="45.35" />
  <polygon class="cls-10"
    points="239.77 240.44 239.17 239.65 254.09 228.45 268.47 235.87 297.08 214.11 297.19 214.09 311.58 210.84 311.8 211.82 297.52 215.04 268.57 237.05 254.19 229.62 239.77 240.44" />
  <circle class="cls-10" cx="239.75" cy="240.04" r="1.74" />
  <circle class="cls-10" cx="254.14" cy="229.35" r="1.74" />
  <circle class="cls-10" cx="268.52" cy="236.56" r="1.74" />
  <circle class="cls-10" cx="282.91" cy="225.69" r="1.74" />
  <circle class="cls-10" cx="297.3" cy="214.53" r="1.74" />
  <circle class="cls-10" cx="311.69" cy="211.33" r="1.74" />
  <circle class="cls-10" cx="227.97" cy="179.05" r="2.5" />
  <circle class="cls-11" cx="236.97" cy="179.05" r="2.5" />
  <circle class="cls-12" cx="245.97" cy="179.05" r="2.5" />
</svg>