<svg width="24" height="24" viewBox="0 0 32 32" fill="none">
  <circle cx="16" cy="16" r="16" fill="#626AEA" />
  <path
    d="M10.788 13.826c.298-.738.703-1.264 1.226-1.78 1.87-1.848 4.785-2.217 6.953-.811l-.051-1.804 1.845-.414c-3.29-2.217-7.775-1.904-10.689.978-.747.738-1.49 1.879-1.937 2.912l.966 1.611 1.688-.692h-.001zm1.3 5.98c-1.05-1.033-1.504-2.753-1.578-4.158l-1.612.93-1.329-1.224c-.083 2.756.63 4.69 2.46 6.628 1.434 1.52 3.696 2.458 6.024 2.454l.747-1.603-1.357-1.275c-1.646-.334-2.396-.813-3.354-1.752zM22.3 10.358l-1.707.254-.061 1.634c1.492 2.215 1.598 5.739-.562 7.691a6.187 6.187 0 01-2.72 1.421l1.606 1.016-.914 1.832a8.6 8.6 0 004.068-2.235c3.032-2.944 3.334-8.138.291-11.612H22.3z"
    fill="#fff" />
</svg>